<svg width="20" height="21" viewBox="0 0 20 21" fill="none" xmlns="http://www.w3.org/2000/svg">
<path fill-rule="evenodd" clip-rule="evenodd" d="M14.334 0.5C17.723 0.5 20 2.878 20 6.416V14.584C20 18.122 17.723 20.5 14.333 20.5H5.665C2.276 20.5 0 18.122 0 14.584V6.416C0 2.878 2.276 0.5 5.665 0.5H14.334ZM14.334 2H5.665C3.135 2 1.5 3.733 1.5 6.416V14.584C1.5 17.267 3.135 19 5.665 19H14.333C16.864 19 18.5 17.267 18.5 14.584V6.416C18.5 3.733 16.864 2 14.334 2ZM14.0895 7.597C14.3825 7.89 14.3825 8.364 14.0895 8.657L9.3435 13.403C9.1975 13.55 9.0055 13.623 8.8135 13.623C8.6225 13.623 8.4295 13.55 8.2835 13.403L5.9095 11.03C5.6165 10.737 5.6165 10.263 5.9095 9.97C6.2025 9.677 6.6765 9.677 6.9695 9.97L8.8135 11.812L13.0295 7.597C13.3225 7.304 13.7965 7.304 14.0895 7.597Z" fill="#09DF05"/>
</svg>
